<svg fill="none" height="20" viewBox="0 0 24 24" width="20" xmlns="http://www.w3.org/2000/svg">
    <g stroke="currentColor" stroke-width="1.5">
        <path d="m5 5.96552h3.15m3.85 0h-1.75m-2.1 0h2.1m-2.1 0v-.96552m2.1.96552c-.36924 1.32041-1.14246 2.56859-2.025 3.66551m-2.25 2.36897c.71343-.656 1.5192-1.4606 2.25-2.36897m0 0c-.45-.52758-1.08-1.38119-1.26-1.76739m1.26 1.76739 1.35 1.40347"
              stroke-linecap="round" stroke-linejoin="round"/>
        <path d="m7.02231 16.9777c.05443 1.7201.24166 2.7752.88565 3.5599.16622.2025.35193.3882.55447.5544 1.10635.908 2.75007.908 6.03757.908s4.9312 0 6.0376-.908c.2025-.1662.3882-.3519.5544-.5544.908-1.1064.908-2.7501.908-6.0376s0-4.93122-.908-6.03757c-.1662-.20254-.3519-.38825-.5544-.55447-.7813-.6412-1.8306-.82959-3.5376-.88493m-9.97769 9.95467c-1.72014-.0544-2.77518-.2417-3.55988-.8857-.20254-.1662-.38825-.3519-.55447-.5544-.90796-1.1064-.90796-2.7501-.90796-6.0376 0-3.28748 0-4.93122.90796-6.03757.16622-.20254.35193-.38825.55447-.55447 1.10635-.90796 2.75009-.90796 6.03757-.90796 3.2875 0 4.9312 0 6.0376.90796.2025.16622.3882.35193.5544.55447.644.7847.8313 1.83974.8857 3.55988 0 0 0 0 .0223.00072m-9.97769 9.95467 9.97769-9.95467"/>
        <path d="m13 19 .8333-2m4.1667 2-.8333-2m-3.3334 0 1.6667-4 1.6667 4m-3.3334 0h3.3334" stroke-linecap="round"
              stroke-linejoin="round"/>
    </g>
</svg>
