<svg width="800" height="800" viewBox="0 0 24 24" fill="none" xmlns="http://www.w3.org/2000/svg"><g clip-path="url(#a)"><path d="m20.995 11.711 1.25-.039a1.25 1.25 0 0 0-1.605-1.159l.355 1.198zm-8.707-8.706 1.199.355a1.25 1.25 0 0 0-1.16-1.605l-.038 1.25zm8.352 7.508a5.752 5.752 0 0 1-1.64.237v2.5c.815 0 1.605-.119 2.351-.34l-.711-2.397zM19 10.75A5.75 5.75 0 0 1 13.25 5h-2.5A8.25 8.25 0 0 0 19 13.25v-2.5zM13.25 5c0-.572.083-1.122.237-1.64L11.09 2.65A8.253 8.253 0 0 0 10.75 5h2.5zM12 4.25c.083 0 .166.001.25.004l.078-2.499A10.415 10.415 0 0 0 12 1.75v2.5zM4.25 12A7.75 7.75 0 0 1 12 4.25v-2.5C6.34 1.75 1.75 6.34 1.75 12h2.5zM12 19.75A7.75 7.75 0 0 1 4.25 12h-2.5c0 5.66 4.59 10.25 10.25 10.25v-2.5zM19.75 12A7.75 7.75 0 0 1 12 19.75v2.5c5.66 0 10.25-4.59 10.25-10.25h-2.5zm-.004-.25c.003.084.004.167.004.25h2.5c0-.11-.002-.219-.005-.328l-2.499.079z" fill="currentColor"/></g><defs><clipPath id="a"><path fill="currentColor" d="M0 0h24v24H0z"/></clipPath></defs></svg>
